<svg xmlns="http://www.w3.org/2000/svg" xmlns:v="https://vecta.io/nano" width="47" height="50" fill="none"><mask id="A" maskUnits="userSpaceOnUse" x="0" y="0" width="47" height="50"><path d="M14.6 6.442L21.54.635a3.53 3.53 0 0 1 4.039 0l6.941 5.807h5.616c2.722 0 4.928 2.201 4.928 4.915v3.906l3.119 2.609a1.05 1.05 0 0 1 .378.807v27.809c0 1.939-1.576 3.511-3.52 3.511H4.08C2.136 50 .56 48.428.56 46.489L.561 18.68c0-.311.138-.607.377-.807l3.117-2.608v-3.908c0-2.715 2.206-4.915 4.928-4.915H14.6z" fill="#ebe9ff"></path></mask><g mask="url(#A)"><path d="M21.004 1.634L2.045 16.988a4 4 0 0 0-1.483 3.108L.561 46.489C.561 48.428 2.137 50 4.081 50h38.96c1.944 0 3.52-1.572 3.52-3.511V20.101a4 4 0 0 0-1.489-3.113L26.033 1.63a4 4 0 0 0-5.029.005z" fill="#ffcca6"></path><path d="M43.065 6.442V50H4.056V6.442h39.008z" fill="#f9f9ff"></path><rect x="9.37" y="23.348" width="22.24" height="2.5" rx="1.25" fill="#f08420"></rect><rect x="9.37" y="12.451" width="22.023" height="2.5" rx="1.25" fill="#f08420"></rect><rect x="9.37" y="17.9" width="16.701" height="2.5" rx="1.25" fill="#f08420"></rect><path d="M18.277 33.991L.351 19.562l.124 29 17.802-14.57zm10.66.254l18.16-14.475-.252 27.582-17.908-13.107z" fill="#ffa35c"></path><path d="M.317 43.979l15.247-10.652c4.845-3.385 11.288-3.385 16.133 0l26.253 18.341c1.129.789.571 2.563-.807 2.563H3.543c-5.511 0-7.744-7.096-3.227-10.252z" fill="#f08420"></path></g></svg>