<svg width="256" height="256" viewBox="0 0 256 256" fill="none" xmlns="http://www.w3.org/2000/svg">
<rect width="256" height="256" rx="128" fill="white"/>
<path fill-rule="evenodd" clip-rule="evenodd" d="M64.6444 62L153.003 179.489C185.961 179.489 167.755 160.582 171.085 136.506C171.085 102.961 233.332 62 200.374 62L64.6444 62ZM200.374 219C205.465 217.406 25 139.258 25 116.416C25 91.2574 187.071 78.956 171.085 78.956C155.099 78.956 138.038 73.1986 128.449 73.1986C139.079 85.2874 145.781 92.8415 145.781 110.342C145.781 118.256 139.454 129.427 137.017 136.506L200.374 219ZM125.025 124.826C129.176 130.432 131.943 119.104 131.943 116.416C128.449 87.4485 120.482 82.4982 105.318 73.1986H87.3733L106.199 99.0121L125.025 124.826Z" fill="#1E1E1E"/>
</svg>
